<svg width="15" height="15" viewBox="0 0 15 15" xmlns="http://www.w3.org/2000/svg">
    <path d="M6.54 10.3c0 .24.077.436.229.592a.799.799 0 0 0 .58.23c.233 0 .43-.078.584-.23a.792.792 0 0 0 .237-.592.784.784 0 0 0-.237-.588.792.792 0 0 0-.585-.231.785.785 0 0 0-.808.82zm.278-1.63h1.104a.91.91 0 0 1 .052-.517c.07-.182.161-.354.275-.515a3.72 3.72 0 0 1 .384-.466c.14-.146.275-.301.397-.462a2.71 2.71 0 0 0 .31-.51c.085-.18.126-.38.126-.605 0-.29-.05-.541-.146-.758-.1-.22-.24-.4-.421-.547a1.825 1.825 0 0 0-.644-.334 2.853 2.853 0 0 0-.81-.111c-.402 0-.761.088-1.08.26-.322.17-.6.39-.832.66l.7.62c.158-.17.33-.302.512-.401.184-.097.386-.147.611-.147.279 0 .495.076.653.23a.826.826 0 0 1 .234.613c0 .16-.04.31-.12.45a3.13 3.13 0 0 1-.301.428c-.12.143-.249.292-.383.441a3.26 3.26 0 0 0-.36.489c-.106.176-.185.37-.24.58a1.303 1.303 0 0 0-.02.602zM.618 7.5c0 3.8 3.083 6.882 6.882 6.882 3.8 0 6.882-3.082 6.882-6.882S11.3.618 7.5.618A6.884 6.884 0 0 0 .618 7.5zm1.147 0a5.736 5.736 0 1 1 11.471 0 5.736 5.736 0 0 1-11.471 0z" fill="#B59971" fill-rule="evenodd"/>
</svg>
